# xmcd
#
# Track frame offsets:
#	180
#	14429
#	26317
#	38246
#	50808
#	63045
#	76837
#	88409
#	99766
#	112657
#	125144
#	138482
#	155213
#	170486
#	182472
#	193651
#	207106
#	218582
#
# Disc length: 3079 seconds
#
# Revision: 1
# Processed by: cddbd v1.5.2PL0 Copyright (c) Steve Scherf et al.
# Submitted via: audiograbber 1.83.01
#
DISCID=ee0c0512
DTITLE=Various Artist - Blues Festival CD 8
DYEAR=2005
DGENRE=Blues
TTITLE0=Sonny Terry - Hot headed Woman
TTITLE1=Big Joe Williams - I Won't Be In Hard Luck No More
TTITLE2=John Lee Hooker - Guitar Lovin' Man
TTITLE3=Big Joe Turner  - Roll'em Pete
TTITLE4=John Lee Hooker - Cotton PIckin' Boogie
TTITLE5=Crayton - Blues After Hours
TTITLE6=John Lee Hooker - My Baby Put Me Down
TTITLE7=Blind Boy Fuller - Bye Bye Baby Blues
TTITLE8=John Lee Hooker -  - Do My Baby Think Of Me
TTITLE9=Lightnin' Hopkins - PIcture ON The Wall
TTITLE10=Ray Charles - The Midnight Hour
TTITLE11=John Lee Hooker - Goin' Mad Blues
TTITLE12=Hot Lips Page - Evil Man's Blues
TTITLE13=John Lee Williamson - Bad Luck Blues
TTITLE14=Blind Boy Fuller and Sonny Tery - Mean And No Good Woman
TTITLE15=Crayton - After Hours Boogie
TTITLE16=Brownie Mc Ghee - What Will I Do (Without The Lord)
TTITLE17=Blilnd Boy Fuller - Somebody's Been Talking
EXTD=
EXTT0=
EXTT1=
EXTT2=
EXTT3=
EXTT4=
EXTT5=
EXTT6=
EXTT7=
EXTT8=
EXTT9=
EXTT10=
EXTT11=
EXTT12=
EXTT13=
EXTT14=
EXTT15=
EXTT16=
EXTT17=
PLAYORDER=
